<svg width="44" height="44" viewBox="0 0 44 44" fill="none" xmlns="http://www.w3.org/2000/svg">
<path d="M22 27C22.2833 27 22.5208 26.9042 22.7125 26.7125C22.9042 26.5208 23 26.2833 23 26V22C23 21.7167 22.9042 21.4792 22.7125 21.2875C22.5208 21.0958 22.2833 21 22 21C21.7167 21 21.4792 21.0958 21.2875 21.2875C21.0958 21.4792 21 21.7167 21 22V26C21 26.2833 21.0958 26.5208 21.2875 26.7125C21.4792 26.9042 21.7167 27 22 27ZM22 19C22.2833 19 22.5208 18.9042 22.7125 18.7125C22.9042 18.5208 23 18.2833 23 18C23 17.7167 22.9042 17.4792 22.7125 17.2875C22.5208 17.0958 22.2833 17 22 17C21.7167 17 21.4792 17.0958 21.2875 17.2875C21.0958 17.4792 21 17.7167 21 18C21 18.2833 21.0958 18.5208 21.2875 18.7125C21.4792 18.9042 21.7167 19 22 19ZM22 32C20.6167 32 19.3167 31.7375 18.1 31.2125C16.8833 30.6875 15.825 29.975 14.925 29.075C14.025 28.175 13.3125 27.1167 12.7875 25.9C12.2625 24.6833 12 23.3833 12 22C12 20.6167 12.2625 19.3167 12.7875 18.1C13.3125 16.8833 14.025 15.825 14.925 14.925C15.825 14.025 16.8833 13.3125 18.1 12.7875C19.3167 12.2625 20.6167 12 22 12C23.3833 12 24.6833 12.2625 25.9 12.7875C27.1167 13.3125 28.175 14.025 29.075 14.925C29.975 15.825 30.6875 16.8833 31.2125 18.1C31.7375 19.3167 32 20.6167 32 22C32 23.3833 31.7375 24.6833 31.2125 25.9C30.6875 27.1167 29.975 28.175 29.075 29.075C28.175 29.975 27.1167 30.6875 25.9 31.2125C24.6833 31.7375 23.3833 32 22 32ZM22 30C24.2333 30 26.125 29.225 27.675 27.675C29.225 26.125 30 24.2333 30 22C30 19.7667 29.225 17.875 27.675 16.325C26.125 14.775 24.2333 14 22 14C19.7667 14 17.875 14.775 16.325 16.325C14.775 17.875 14 19.7667 14 22C14 24.2333 14.775 26.125 16.325 27.675C17.875 29.225 19.7667 30 22 30Z" fill="#151B28"/>
</svg>
