<svg width="13" height="18" viewBox="0 0 13 18" fill="none" xmlns="http://www.w3.org/2000/svg">
<path d="M12.2082 16.0844C12.5533 16.0843 12.8333 16.3641 12.8333 16.7092C12.8333 17.0544 12.5537 17.3343 12.2085 17.3344L1.37518 17.3376C1.03 17.3377 0.75 17.0579 0.75 16.7127C0.75 16.3676 1.02964 16.0877 1.37482 16.0876L12.2082 16.0844ZM6.70683 0.677583L6.79167 0.671875C7.10808 0.671875 7.36958 0.907 7.411 1.21207L7.41667 1.29688L7.41583 12.7011L10.5173 9.60074C10.7393 9.37891 11.0865 9.35874 11.3312 9.54033L11.4013 9.60083C11.6231 9.82274 11.6433 10.17 11.4617 10.4147L11.4012 10.4847L7.23642 14.6486C7.01467 14.8703 6.66767 14.8906 6.423 14.7092L6.35292 14.6488L2.18336 10.485C1.93912 10.2411 1.93884 9.84532 2.18276 9.60108C2.40449 9.37908 2.7517 9.35866 2.9965 9.54008L3.06664 9.60049L6.16583 12.6952L6.16667 1.29688C6.16667 0.980458 6.40183 0.718967 6.70683 0.677583Z" fill="#324191"/>
</svg>
