<svg width="44" height="44" viewBox="0 0 44 44" fill="none" xmlns="http://www.w3.org/2000/svg">
<path d="M22 31.0004C19.4833 31.0004 17.3542 30.1296 15.6125 28.3879C13.8708 26.6463 13 24.5171 13 22.0004C13 19.7004 13.75 17.7046 15.25 16.0129C16.75 14.3213 18.6667 13.3338 21 13.0504C21.2167 13.0171 21.4083 13.0463 21.575 13.1379C21.7417 13.2296 21.875 13.3504 21.975 13.5004C22.075 13.6504 22.1292 13.8254 22.1375 14.0254C22.1458 14.2254 22.0833 14.4171 21.95 14.6004C21.6667 15.0338 21.4542 15.4921 21.3125 15.9754C21.1708 16.4588 21.1 16.9671 21.1 17.5004C21.1 19.0004 21.625 20.2754 22.675 21.3254C23.725 22.3754 25 22.9004 26.5 22.9004C27.0167 22.9004 27.5292 22.8254 28.0375 22.6754C28.5458 22.5254 29 22.3171 29.4 22.0504C29.5833 21.9338 29.7708 21.8796 29.9625 21.8879C30.1542 21.8963 30.325 21.9421 30.475 22.0254C30.6417 22.1088 30.7708 22.2338 30.8625 22.4004C30.9542 22.5671 30.9833 22.7671 30.95 23.0004C30.7167 25.3004 29.7375 27.2088 28.0125 28.7254C26.2875 30.2421 24.2833 31.0004 22 31.0004ZM22 29.0004C23.4667 29.0004 24.7833 28.5963 25.95 27.7879C27.1167 26.9796 27.9667 25.9254 28.5 24.6254C28.1667 24.7088 27.8333 24.7754 27.5 24.8254C27.1667 24.8754 26.8333 24.9004 26.5 24.9004C24.45 24.9004 22.7042 24.1796 21.2625 22.7379C19.8208 21.2963 19.1 19.5504 19.1 17.5004C19.1 17.1671 19.125 16.8338 19.175 16.5004C19.225 16.1671 19.2917 15.8338 19.375 15.5004C18.075 16.0338 17.0208 16.8838 16.2125 18.0504C15.4042 19.2171 15 20.5338 15 22.0004C15 23.9338 15.6833 25.5838 17.05 26.9504C18.4167 28.3171 20.0667 29.0004 22 29.0004Z" fill="#151B28"/>
</svg>
