<svg width="64" height="32" viewBox="0 0 64 32" fill="none" xmlns="http://www.w3.org/2000/svg">
<g clip-path="url(#clip0_3858_236)">
<path d="M25.5 23.5H29.25V18C29.25 17.7875 29.3219 17.6094 29.4656 17.4656C29.6094 17.3219 29.7875 17.25 30 17.25H34C34.2125 17.25 34.3906 17.3219 34.5344 17.4656C34.6781 17.6094 34.75 17.7875 34.75 18V23.5H38.5V13.75L32 8.875L25.5 13.75V23.5ZM24 23.5V13.75C24 13.5125 24.0531 13.2875 24.1594 13.075C24.2656 12.8625 24.4125 12.6875 24.6 12.55L31.1 7.675C31.3613 7.475 31.66 7.375 31.996 7.375C32.332 7.375 32.6333 7.475 32.9 7.675L39.4 12.55C39.5875 12.6875 39.7344 12.8625 39.8406 13.075C39.9469 13.2875 40 13.5125 40 13.75V23.5C40 23.9125 39.8531 24.2656 39.5594 24.5594C39.2656 24.8531 38.9125 25 38.5 25H34C33.7875 25 33.6094 24.9281 33.4656 24.7844C33.3219 24.6406 33.25 24.4625 33.25 24.25V18.75H30.75V24.25C30.75 24.4625 30.6781 24.6406 30.5344 24.7844C30.3906 24.9281 30.2125 25 30 25H25.5C25.0875 25 24.7344 24.8531 24.4406 24.5594C24.1469 24.2656 24 23.9125 24 23.5Z" fill="#49556D"/>
</g>
<defs>
<clipPath id="clip0_3858_236">
<rect width="64" height="32" rx="16" fill="white"/>
</clipPath>
</defs>
</svg>
