<svg width="20" height="20" viewBox="0 0 20 20" fill="none" xmlns="http://www.w3.org/2000/svg">
<path d="M13.7265 16.6663H3.4165C3.2839 16.6663 3.15672 16.6136 3.06295 16.5198C2.96918 16.4261 2.9165 16.2989 2.9165 16.1663V7.9996C2.9165 7.86699 2.96918 7.73981 3.06295 7.64605C3.15672 7.55228 3.2839 7.4996 3.4165 7.4996H5.72317C6.01098 7.4996 6.29389 7.42507 6.54434 7.28327C6.79479 7.14147 7.00426 6.93723 7.15234 6.69043L9.41067 2.92627C9.58099 2.64198 9.84932 2.42971 10.1652 2.32939C10.481 2.22907 10.8227 2.24761 11.1258 2.38153C11.429 2.51544 11.6727 2.7555 11.8113 3.05655C11.9498 3.3576 11.9736 3.6989 11.8782 4.01627L11.0265 6.85627C11.0042 6.93086 10.9996 7.00963 11.0131 7.08631C11.0266 7.16299 11.0578 7.23545 11.1043 7.29793C11.1507 7.36041 11.2111 7.41118 11.2807 7.44619C11.3502 7.48121 11.427 7.49949 11.5048 7.4996H15.3173C15.5736 7.49955 15.8265 7.5586 16.0562 7.67216C16.286 7.78573 16.4864 7.95075 16.642 8.15439C16.7976 8.35804 16.9042 8.59482 16.9534 8.84634C17.0025 9.09786 16.9931 9.35734 16.9257 9.6046L15.334 15.4379C15.2379 15.7905 15.0286 16.1017 14.7383 16.3236C14.448 16.5456 14.0919 16.666 13.7265 16.6663Z" stroke="#49556D" stroke-width="1.5" stroke-linecap="round"/>
<path d="M5.8335 16.6667V7.5" stroke="#49556D" stroke-width="1.5" stroke-linecap="round" stroke-linejoin="round"/>
</svg>
