<svg width="44" height="44" viewBox="0 0 44 44" fill="none" xmlns="http://www.w3.org/2000/svg">
<path d="M26 27.0003L31 22.0003M31 22.0003L26 17.0003M31 22.0003H19M22 27.0003C22 27.2959 22 27.4437 21.989 27.5717C21.8748 28.9023 20.8949 29.9972 19.585 30.2576C19.459 30.2826 19.312 30.299 19.0184 30.3316L17.9969 30.4451C16.4625 30.6156 15.6952 30.7008 15.0857 30.5058C14.2729 30.2457 13.6094 29.6518 13.2612 28.8728C13 28.2885 13 27.5165 13 25.9726V18.028C13 16.4841 13 15.7121 13.2612 15.1278C13.6094 14.3488 14.2729 13.7549 15.0857 13.4948C15.6952 13.2998 16.4625 13.385 17.9969 13.5555L19.0183 13.669C19.3121 13.7017 19.459 13.718 19.585 13.743C20.8949 14.0035 21.8748 15.0983 21.989 16.4289C22 16.5569 22 16.7047 22 17.0003" stroke="#EF4444" stroke-width="1.5" stroke-linecap="round" stroke-linejoin="round"/>
</svg>
