<svg width="24" height="24" viewBox="0 0 24 24" fill="none" xmlns="http://www.w3.org/2000/svg">
<path d="M15.0325 18.0153C15.4613 19.6157 14.5115 21.2607 12.9111 21.6895C11.3107 22.1183 9.66574 21.1686 9.23691 19.5682M11.533 5.74134C11.8372 5.19404 11.9374 4.53254 11.7626 3.87994C11.4052 2.54627 10.0344 1.75482 8.70069 2.11217C7.36703 2.46953 6.57557 3.84037 6.93292 5.17404C7.10779 5.82663 7.52532 6.3494 8.06242 6.67128M16.8774 9.44578C16.5204 8.11364 15.5675 6.99968 14.2282 6.34895C12.889 5.69822 11.273 5.56402 9.73597 5.97588C8.19889 6.38774 6.86656 7.31191 6.03208 8.5451C5.1976 9.77829 4.92933 11.2195 5.28627 12.5516C5.87685 14.7557 5.76217 16.514 5.38922 17.8502C4.96415 19.373 4.75162 20.1345 4.80903 20.2874C4.87473 20.4623 4.92224 20.5103 5.09648 20.5778C5.24877 20.6368 5.88854 20.4654 7.16808 20.1225L19.0331 16.9433C20.3127 16.6004 20.9525 16.429 21.0548 16.3018C21.172 16.1562 21.1891 16.0909 21.1586 15.9065C21.1318 15.7454 20.5671 15.1922 19.4375 14.086C18.4465 13.1153 17.468 11.6498 16.8774 9.44578Z" stroke="#151B28" stroke-width="1.5" stroke-linecap="round" stroke-linejoin="round"/>
</svg>
