<svg width="44" height="44" viewBox="0 0 44 44" fill="none" xmlns="http://www.w3.org/2000/svg">
<path d="M22 27.0004C22.2833 27.0004 22.5208 26.9046 22.7125 26.7129C22.9042 26.5212 23 26.2837 23 26.0004V22.0004C23 21.7171 22.9042 21.4796 22.7125 21.2879C22.5208 21.0962 22.2833 21.0004 22 21.0004C21.7167 21.0004 21.4792 21.0962 21.2875 21.2879C21.0958 21.4796 21 21.7171 21 22.0004V26.0004C21 26.2837 21.0958 26.5212 21.2875 26.7129C21.4792 26.9046 21.7167 27.0004 22 27.0004ZM22 19.0004C22.2833 19.0004 22.5208 18.9046 22.7125 18.7129C22.9042 18.5212 23 18.2837 23 18.0004C23 17.7171 22.9042 17.4796 22.7125 17.2879C22.5208 17.0962 22.2833 17.0004 22 17.0004C21.7167 17.0004 21.4792 17.0962 21.2875 17.2879C21.0958 17.4796 21 17.7171 21 18.0004C21 18.2837 21.0958 18.5212 21.2875 18.7129C21.4792 18.9046 21.7167 19.0004 22 19.0004ZM22 31.9004C21.8833 31.9004 21.775 31.8921 21.675 31.8754C21.575 31.8587 21.475 31.8337 21.375 31.8004C19.125 31.0504 17.3333 29.6629 16 27.6379C14.6667 25.6129 14 23.4337 14 21.1004V16.3754C14 15.9587 14.1208 15.5837 14.3625 15.2504C14.6042 14.9171 14.9167 14.6754 15.3 14.5254L21.3 12.2754C21.5333 12.1921 21.7667 12.1504 22 12.1504C22.2333 12.1504 22.4667 12.1921 22.7 12.2754L28.7 14.5254C29.0833 14.6754 29.3958 14.9171 29.6375 15.2504C29.8792 15.5837 30 15.9587 30 16.3754V21.1004C30 23.4337 29.3333 25.6129 28 27.6379C26.6667 29.6629 24.875 31.0504 22.625 31.8004C22.525 31.8337 22.425 31.8587 22.325 31.8754C22.225 31.8921 22.1167 31.9004 22 31.9004ZM22 29.9004C23.7333 29.3504 25.1667 28.2504 26.3 26.6004C27.4333 24.9504 28 23.1171 28 21.1004V16.3754L22 14.1254L16 16.3754V21.1004C16 23.1171 16.5667 24.9504 17.7 26.6004C18.8333 28.2504 20.2667 29.3504 22 29.9004Z" fill="#151B28"/>
</svg>
