<svg width="32" height="32" viewBox="0 0 32 32" fill="none" xmlns="http://www.w3.org/2000/svg">
<path d="M18 19C18.2833 19 18.5292 18.8958 18.7375 18.6875C18.9458 18.4792 19.05 18.2333 19.05 17.95C19.05 17.6667 18.9458 17.4208 18.7375 17.2125C18.5292 17.0042 18.2833 16.9 18 16.9C17.7167 16.9 17.4708 17.0042 17.2625 17.2125C17.0542 17.4208 16.95 17.6667 16.95 17.95C16.95 18.2333 17.0542 18.4792 17.2625 18.6875C17.4708 18.8958 17.7167 19 18 19ZM18 15.8C18.1833 15.8 18.3542 15.7333 18.5125 15.6C18.6708 15.4667 18.7667 15.2917 18.8 15.075C18.8333 14.875 18.9042 14.6917 19.0125 14.525C19.1208 14.3583 19.3167 14.1333 19.6 13.85C20.1 13.35 20.4333 12.9458 20.6 12.6375C20.7667 12.3292 20.85 11.9667 20.85 11.55C20.85 10.8 20.5875 10.1875 20.0625 9.7125C19.5375 9.2375 18.85 9 18 9C17.45 9 16.95 9.125 16.5 9.375C16.05 9.625 15.6917 9.98333 15.425 10.45C15.325 10.6167 15.3167 10.7917 15.4 10.975C15.4833 11.1583 15.625 11.2917 15.825 11.375C16.0083 11.4583 16.1875 11.4667 16.3625 11.4C16.5375 11.3333 16.6833 11.2167 16.8 11.05C16.95 10.8333 17.125 10.6708 17.325 10.5625C17.525 10.4542 17.75 10.4 18 10.4C18.4 10.4 18.725 10.5125 18.975 10.7375C19.225 10.9625 19.35 11.2667 19.35 11.65C19.35 11.8833 19.2833 12.1042 19.15 12.3125C19.0167 12.5208 18.7833 12.7833 18.45 13.1C17.9667 13.5167 17.6583 13.8375 17.525 14.0625C17.3917 14.2875 17.3083 14.6167 17.275 15.05C17.2583 15.25 17.3208 15.425 17.4625 15.575C17.6042 15.725 17.7833 15.8 18 15.8ZM12 22C11.45 22 10.9792 21.8042 10.5875 21.4125C10.1958 21.0208 10 20.55 10 20V8C10 7.45 10.1958 6.97917 10.5875 6.5875C10.9792 6.19583 11.45 6 12 6H24C24.55 6 25.0208 6.19583 25.4125 6.5875C25.8042 6.97917 26 7.45 26 8V20C26 20.55 25.8042 21.0208 25.4125 21.4125C25.0208 21.8042 24.55 22 24 22H12ZM12 20H24V8H12V20ZM8 26C7.45 26 6.97917 25.8042 6.5875 25.4125C6.19583 25.0208 6 24.55 6 24V11C6 10.7167 6.09583 10.4792 6.2875 10.2875C6.47917 10.0958 6.71667 10 7 10C7.28333 10 7.52083 10.0958 7.7125 10.2875C7.90417 10.4792 8 10.7167 8 11V24H21C21.2833 24 21.5208 24.0958 21.7125 24.2875C21.9042 24.4792 22 24.7167 22 25C22 25.2833 21.9042 25.5208 21.7125 25.7125C21.5208 25.9042 21.2833 26 21 26H8Z" fill="#49556D"/>
</svg>
