<svg width="32" height="32" viewBox="0 0 32 32" fill="none" xmlns="http://www.w3.org/2000/svg">
<path d="M8 25.0002C7.45 25.0002 6.97917 24.8044 6.5875 24.4127C6.19583 24.021 6 23.5502 6 23.0002V7.6002C6 7.48353 6.05 7.40436 6.15 7.3627C6.25 7.32103 6.34167 7.34186 6.425 7.4252L7.325 8.3252C7.425 8.4252 7.54167 8.4752 7.675 8.4752C7.80833 8.4752 7.925 8.4252 8.025 8.3252L8.975 7.3502C9.075 7.2502 9.19167 7.2002 9.325 7.2002C9.45833 7.2002 9.575 7.2502 9.675 7.3502L10.65 8.3252C10.75 8.4252 10.8667 8.4752 11 8.4752C11.1333 8.4752 11.25 8.4252 11.35 8.3252L12.325 7.3502C12.425 7.2502 12.5417 7.2002 12.675 7.2002C12.8083 7.2002 12.925 7.2502 13.025 7.3502L13.975 8.3252C14.075 8.4252 14.1917 8.4752 14.325 8.4752C14.4583 8.4752 14.575 8.4252 14.675 8.3252L15.65 7.3502C15.75 7.2502 15.8667 7.2002 16 7.2002C16.1333 7.2002 16.25 7.2502 16.35 7.3502L17.325 8.3252C17.425 8.4252 17.5417 8.4752 17.675 8.4752C17.8083 8.4752 17.925 8.4252 18.025 8.3252L18.975 7.3502C19.075 7.2502 19.1917 7.2002 19.325 7.2002C19.4583 7.2002 19.575 7.2502 19.675 7.3502L20.65 8.3252C20.75 8.4252 20.8667 8.4752 21 8.4752C21.1333 8.4752 21.25 8.4252 21.35 8.3252L22.325 7.3502C22.425 7.2502 22.5417 7.2002 22.675 7.2002C22.8083 7.2002 22.925 7.2502 23.025 7.3502L23.975 8.3252C24.075 8.4252 24.1917 8.4752 24.325 8.4752C24.4583 8.4752 24.575 8.4252 24.675 8.3252L25.575 7.4252C25.6583 7.34186 25.75 7.32103 25.85 7.3627C25.95 7.40436 26 7.48353 26 7.6002V23.0002C26 23.5502 25.8042 24.021 25.4125 24.4127C25.0208 24.8044 24.55 25.0002 24 25.0002H8ZM8 23.0002H15V17.0002H8V23.0002ZM17 23.0002H24V21.0002H17V23.0002ZM17 19.0002H24V17.0002H17V19.0002ZM8 15.0002H24V12.0002H8V15.0002Z" fill="#49556D"/>
</svg>
