<svg width="44" height="44" viewBox="0 0 44 44" fill="none" xmlns="http://www.w3.org/2000/svg">
<path d="M28 32C28.7956 32 29.5587 31.6839 30.1213 31.1213C30.6839 30.5587 31 29.7956 31 29C31 28.2044 30.6839 27.4413 30.1213 26.8787C29.5587 26.3161 28.7956 26 28 26C27.2044 26 26.4413 26.3161 25.8787 26.8787C25.3161 27.4413 25 28.2044 25 29C25 29.7956 25.3161 30.5587 25.8787 31.1213C26.4413 31.6839 27.2044 32 28 32ZM28 18C28.7956 18 29.5587 17.6839 30.1213 17.1213C30.6839 16.5587 31 15.7956 31 15C31 14.2044 30.6839 13.4413 30.1213 12.8787C29.5587 12.3161 28.7956 12 28 12C27.2044 12 26.4413 12.3161 25.8787 12.8787C25.3161 13.4413 25 14.2044 25 15C25 15.7956 25.3161 16.5587 25.8787 17.1213C26.4413 17.6839 27.2044 18 28 18ZM16 25C16.7956 25 17.5587 24.6839 18.1213 24.1213C18.6839 23.5587 19 22.7956 19 22C19 21.2044 18.6839 20.4413 18.1213 19.8787C17.5587 19.3161 16.7956 19 16 19C15.2044 19 14.4413 19.3161 13.8787 19.8787C13.3161 20.4413 13 21.2044 13 22C13 22.7956 13.3161 23.5587 13.8787 24.1213C14.4413 24.6839 15.2044 25 16 25Z" stroke="#151B28" stroke-width="1.5" stroke-linecap="round" stroke-linejoin="round"/>
<path d="M25.5 16.5L18.5 20.5M18.5 23.5L25.5 27.5" stroke="#151B28" stroke-width="1.5"/>
</svg>
