<svg width="44" height="44" viewBox="0 0 44 44" fill="none" xmlns="http://www.w3.org/2000/svg">
<path d="M16.5 26C17.2833 26 18.0458 26.0875 18.7875 26.2625C19.5292 26.4375 20.2667 26.7 21 27.05V17.2C20.3167 16.8 19.5917 16.5 18.825 16.3C18.0583 16.1 17.2833 16 16.5 16C15.9 16 15.3042 16.0583 14.7125 16.175C14.1208 16.2917 13.55 16.4667 13 16.7V26.6C13.5833 26.4 14.1625 26.25 14.7375 26.15C15.3125 26.05 15.9 26 16.5 26ZM23 27.05C23.7333 26.7 24.4708 26.4375 25.2125 26.2625C25.9542 26.0875 26.7167 26 27.5 26C28.1 26 28.6875 26.05 29.2625 26.15C29.8375 26.25 30.4167 26.4 31 26.6V16.7C30.45 16.4667 29.8792 16.2917 29.2875 16.175C28.6958 16.0583 28.1 16 27.5 16C26.7167 16 25.9417 16.1 25.175 16.3C24.4083 16.5 23.6833 16.8 23 17.2V27.05ZM22 29.475C21.7667 29.475 21.5458 29.4458 21.3375 29.3875C21.1292 29.3292 20.9333 29.25 20.75 29.15C20.1 28.7667 19.4167 28.4792 18.7 28.2875C17.9833 28.0958 17.25 28 16.5 28C15.8 28 15.1125 28.0917 14.4375 28.275C13.7625 28.4583 13.1167 28.7167 12.5 29.05C12.15 29.2333 11.8125 29.225 11.4875 29.025C11.1625 28.825 11 28.5333 11 28.15V16.1C11 15.9167 11.0458 15.7417 11.1375 15.575C11.2292 15.4083 11.3667 15.2833 11.55 15.2C12.3167 14.8 13.1167 14.5 13.95 14.3C14.7833 14.1 15.6333 14 16.5 14C17.4667 14 18.4125 14.125 19.3375 14.375C20.2625 14.625 21.15 15 22 15.5C22.85 15 23.7375 14.625 24.6625 14.375C25.5875 14.125 26.5333 14 27.5 14C28.3667 14 29.2167 14.1 30.05 14.3C30.8833 14.5 31.6833 14.8 32.45 15.2C32.6333 15.2833 32.7708 15.4083 32.8625 15.575C32.9542 15.7417 33 15.9167 33 16.1V28.15C33 28.5333 32.8375 28.825 32.5125 29.025C32.1875 29.225 31.85 29.2333 31.5 29.05C30.8833 28.7167 30.2375 28.4583 29.5625 28.275C28.8875 28.0917 28.2 28 27.5 28C26.75 28 26.0167 28.0958 25.3 28.2875C24.5833 28.4792 23.9 28.7667 23.25 29.15C23.0667 29.25 22.8708 29.3292 22.6625 29.3875C22.4542 29.4458 22.2333 29.475 22 29.475ZM24 18.775C24 18.625 24.0542 18.4708 24.1625 18.3125C24.2708 18.1542 24.3917 18.05 24.525 18C25.0083 17.8333 25.4917 17.7083 25.975 17.625C26.4583 17.5417 26.9667 17.5 27.5 17.5C27.8333 17.5 28.1625 17.5208 28.4875 17.5625C28.8125 17.6042 29.1333 17.6583 29.45 17.725C29.6 17.7583 29.7292 17.8417 29.8375 17.975C29.9458 18.1083 30 18.2583 30 18.425C30 18.7083 29.9083 18.9167 29.725 19.05C29.5417 19.1833 29.3083 19.2167 29.025 19.15C28.7917 19.1 28.5458 19.0625 28.2875 19.0375C28.0292 19.0125 27.7667 19 27.5 19C27.0667 19 26.6417 19.0417 26.225 19.125C25.8083 19.2083 25.4083 19.3167 25.025 19.45C24.725 19.5667 24.4792 19.5583 24.2875 19.425C24.0958 19.2917 24 19.075 24 18.775ZM24 24.275C24 24.125 24.0542 23.9708 24.1625 23.8125C24.2708 23.6542 24.3917 23.55 24.525 23.5C25.0083 23.3333 25.4917 23.2083 25.975 23.125C26.4583 23.0417 26.9667 23 27.5 23C27.8333 23 28.1625 23.0208 28.4875 23.0625C28.8125 23.1042 29.1333 23.1583 29.45 23.225C29.6 23.2583 29.7292 23.3417 29.8375 23.475C29.9458 23.6083 30 23.7583 30 23.925C30 24.2083 29.9083 24.4167 29.725 24.55C29.5417 24.6833 29.3083 24.7167 29.025 24.65C28.7917 24.6 28.5458 24.5625 28.2875 24.5375C28.0292 24.5125 27.7667 24.5 27.5 24.5C27.0667 24.5 26.6417 24.5375 26.225 24.6125C25.8083 24.6875 25.4083 24.7917 25.025 24.925C24.725 25.0417 24.4792 25.0375 24.2875 24.9125C24.0958 24.7875 24 24.575 24 24.275ZM24 21.525C24 21.375 24.0542 21.2208 24.1625 21.0625C24.2708 20.9042 24.3917 20.8 24.525 20.75C25.0083 20.5833 25.4917 20.4583 25.975 20.375C26.4583 20.2917 26.9667 20.25 27.5 20.25C27.8333 20.25 28.1625 20.2708 28.4875 20.3125C28.8125 20.3542 29.1333 20.4083 29.45 20.475C29.6 20.5083 29.7292 20.5917 29.8375 20.725C29.9458 20.8583 30 21.0083 30 21.175C30 21.4583 29.9083 21.6667 29.725 21.8C29.5417 21.9333 29.3083 21.9667 29.025 21.9C28.7917 21.85 28.5458 21.8125 28.2875 21.7875C28.0292 21.7625 27.7667 21.75 27.5 21.75C27.0667 21.75 26.6417 21.7917 26.225 21.875C25.8083 21.9583 25.4083 22.0667 25.025 22.2C24.725 22.3167 24.4792 22.3083 24.2875 22.175C24.0958 22.0417 24 21.825 24 21.525Z" fill="#151B28"/>
</svg>
